<svg xmlns="http://www.w3.org/2000/svg" viewBox="0.138877272605896 24.26899528503418 99.864013671875 45.71800231933594" xml:space="preserve" width="472.8627199999999" height="216.47776946677976" x="8" y="0" class="icon-icon-0" data-fill-palette-color="accent" id="icon-0">
  <path d="M49.701 40.913a10.246 10.246 0 0 0 1.557-0.573c0.487-0.229 0.895-0.498 1.215-0.809 0.521-0.505 0.609-0.881 0.254-1.126-0.353-0.246-1.159-0.463-2.424-0.652l-3.882 3.685a17.53 17.53 0 0 0 1.587-0.164 13.571 13.571 0 0 0 1.693-0.361zM51.33 34.744l3.326-3.112a10.62 10.62 0 0 0-2.728 0.456 8.08 8.08 0 0 0-1.296 0.513 4.43 4.43 0 0 0-1.027 0.698c-0.451 0.416-0.539 0.73-0.265 0.948 0.281 0.215 0.943 0.382 1.99 0.497z" fill="#2ecc40" data-fill-palette-color="accent"></path>
  <path d="M75.028 49.957c0.348 0 0.679-0.138 0.925-0.382l23.665-23.077a1.304 1.304 0 0 0-0.923-2.229h-72.69c-0.315 0-0.619 0.113-0.857 0.32L0.589 47.666a1.305 1.305 0 0 0 0.858 2.291h73.581zM37.502 38.996l5.334-0.042c-0.807 0.717-1.043 1.281-0.714 1.693 0.333 0.415 1.015 0.679 2.053 0.792l4.264-3.989a6.866 6.866 0 0 0-0.415-0.079 12.446 12.446 0 0 0-0.605-0.078c-0.79-0.114-1.547-0.25-2.264-0.408-0.716-0.157-1.276-0.37-1.679-0.642-0.407-0.268-0.591-0.607-0.554-1.016 0.04-0.408 0.403-0.923 1.093-1.543 0.704-0.633 1.565-1.198 2.589-1.696 1.021-0.5 2.109-0.927 3.267-1.283a29.396 29.396 0 0 1 3.591-0.864 33.531 33.531 0 0 1 3.584-0.445l1.565-1.466 2.194-0.087-1.561 1.475c1.043 0.026 1.957 0.115 2.739 0.268 0.786 0.156 1.376 0.387 1.775 0.694 0.403 0.309 0.583 0.705 0.548 1.189-0.035 0.485-0.361 1.066-0.984 1.747l-5.31 0.125c0.517-0.517 0.663-0.948 0.445-1.292-0.221-0.343-0.749-0.502-1.595-0.478l-3.596 3.398c0.26 0.032 0.521 0.064 0.794 0.096 0.272 0.033 0.551 0.073 0.847 0.118 1.581 0.224 2.668 0.521 3.273 0.887 0.604 0.37 0.929 0.762 0.977 1.174 0.049 0.414-0.093 0.83-0.432 1.25-0.342 0.42-0.678 0.793-1.01 1.123-0.295 0.288-0.801 0.653-1.527 1.093-0.719 0.44-1.656 0.871-2.803 1.29-1.15 0.416-2.499 0.786-4.046 1.105-1.551 0.318-3.312 0.505-5.276 0.561l-1.727 1.631-2.263-0.021 1.733-1.622c-2.734-0.116-4.481-0.559-5.24-1.328-0.754-0.761-0.441-1.868 0.936-3.33z" fill="#2ecc40" data-fill-palette-color="accent"></path>
  <path d="M76.558 54.748H0.45v5.226h77.191c0.69 0 1.355-0.275 1.846-0.766L100 38.884v-7.58L76.558 54.748z" fill="#2ecc40" data-fill-palette-color="accent"></path>
  <path d="M0.45 64.761v5.226h79.804c0.691 0 1.356-0.276 1.846-0.766L100 51.398v-7.467l-20.826 20.83H0.45z" fill="#2ecc40" data-fill-palette-color="accent">
  </path>
</svg>
